<?xml version="1.0" encoding="UTF-8"?>
<!DOCTYPE svg PUBLIC "-//W3C//DTD SVG 1.1//EN" "http://www.w3.org/Graphics/SVG/1.1/DTD/svg11.dtd">
<!-- Creator: CorelDRAW X7 -->
<svg xmlns="http://www.w3.org/2000/svg" xml:space="preserve" width="25.3998mm" height="25.3998mm" version="1.1" style="shape-rendering:geometricPrecision; text-rendering:geometricPrecision; image-rendering:optimizeQuality; fill-rule:evenodd; clip-rule:evenodd"
viewBox="0 0 2540 2540"
 xmlns:xlink="http://www.w3.org/1999/xlink">
 <defs>
  <style type="text/css">
   <![CDATA[
    .str0 {stroke:#009846;stroke-width:7.62;stroke-linecap:round;stroke-linejoin:round}
    .fil1 {fill:none}
    .fil0 {fill:#009846;fill-rule:nonzero}
   ]]>
  </style>
 </defs>
<symbol id="Symbol1" viewBox="1106 964 328 612">
 <path class="fil0" d="M1258 1265l24 0 0 -50c0,-10 2,-20 5,-31 6,-14 14,-26 24,-36 19,-17 47,-26 85,-26 13,0 26,3 38,9l-2 78 -6 -3 -16 -4c-3,0 -5,0 -8,0 -2,0 -3,0 -4,0 -19,0 -29,11 -29,33l0 30 62 0 -2 62 -54 0 0 156 0 14c0,9 2,16 7,21 4,4 12,7 25,8l5 0 -2 50 -118 0 -44 0 -119 0 -2 -50 6 0c12,-1 20,-4 25,-8 4,-5 7,-12 7,-21l0 -14 0 -156 -54 0 -2 -62 62 0 0 -30c0,-22 -10,-33 -29,-33 -1,0 -3,0 -4,0 -3,0 -5,0 -8,0l-16 4 -7 2 -1 -78c12,-5 25,-8 38,-8 38,0 66,9 85,26 10,10 18,22 24,36 3,11 5,21 5,31l0 50zm12 253c2,-3 4,-5 6,-8 2,-5 4,-12 6,-22l0 -10 0 -151 -24 0 0 151 0 9c1,11 3,18 6,22 1,4 3,6 6,9zm-5 -554c45,0 81,36 81,82 0,45 -36,81 -81,81 -45,0 -82,-37 -82,-82 0,-45 37,-81 82,-81z"/>
</symbol>
 <g id="Layer_x0020_1">
  <metadata id="CorelCorpID_0Corel-Layer"/>
  <path class="fil1 str0" d="M254 0l2032 0c140,0 254,114 254,254l0 2032c0,140 -114,254 -254,254l-2032 0c-140,0 -254,-114 -254,-254l0 -2032c0,-140 114,-254 254,-254z"/>
  <use transform="scale(3.43678 3.43686)" x="205" y="63" width="328" height="612" xlink:href="#Symbol1"/>
 </g>
</svg>
